<svg id="Capa_1" enable-background="new 0 0 512 512" height="512" viewBox="0 0 512 512" width="512" xmlns="http://www.w3.org/2000/svg"><g><g id="Page-1_11_"><g id="_x30_12---Stacked-Boxes"><path id="Shape_83_" d="m497.573 233.143h-102.29l-45.714 45.714h80.146c4.244.028 8.421 1.052 12.197 2.99z"/><path id="Rectangle-path_11_" d="m265.143 443.429h36.581v18.286h-36.581z"/><path id="Shape_82_" d="m457.143 306.286v168.283l52.114-52.114c1.754-1.689 2.745-4.02 2.743-6.455v-171.182l-57.353 50.185c1.634 3.538 2.485 7.386 2.496 11.283z"/><path id="Shape_81_" d="m207.543 495.671.165-.155c1.656-1.708 2.581-3.994 2.578-6.373v-182.857c0-5.049-4.093-9.143-9.143-9.143h-192c-5.049 0-9.143 4.093-9.143 9.143v182.857c0 5.049 4.093 9.143 9.143 9.143h192c2.395.006 4.695-.934 6.4-2.615zm-116.114-33.957c0 10.099-8.187 18.286-18.286 18.286h-36.572c-10.099 0-18.286-8.187-18.286-18.286v-18.286c0-10.099 8.187-18.286 18.286-18.286h36.571c10.099 0 18.286 8.187 18.286 18.286v18.286zm91.428 18.286h-27.429c-5.049 0-9.143-4.093-9.143-9.143 0-5.049 4.093-9.143 9.143-9.143h27.429c5.049 0 9.143 4.093 9.143 9.143s-4.093 9.143-9.143 9.143zm0-36.571h-27.429c-5.049 0-9.143-4.093-9.143-9.143 0-5.049 4.093-9.143 9.143-9.143h27.429c5.049 0 9.143 4.093 9.143 9.143 0 5.049-4.093 9.143-9.143 9.143z"/><path id="Rectangle-path_10_" d="m36.571 443.429h36.581v18.286h-36.581z"/><path id="Shape_80_" d="m436.014 495.717.101-.174.174-.165c1.62-1.675 2.539-3.906 2.569-6.235v-182.857c0-5.049-4.093-9.143-9.143-9.143h-192c-5.049 0-9.143 4.093-9.143 9.143v182.857c0 5.049 4.093 9.143 9.143 9.143h192c2.351-.014 4.608-.935 6.299-2.569zm-116.014-34.003c0 10.099-8.187 18.286-18.286 18.286h-36.571c-10.099 0-18.286-8.187-18.286-18.286v-18.286c0-10.099 8.187-18.286 18.286-18.286h36.571c10.099 0 18.286 8.187 18.286 18.286zm91.429 18.286h-27.429c-5.049 0-9.143-4.093-9.143-9.143 0-5.049 4.093-9.143 9.143-9.143h27.429c5.049 0 9.143 4.093 9.143 9.143-.001 5.05-4.094 9.143-9.143 9.143zm0-36.571h-27.429c-5.049 0-9.143-4.093-9.143-9.143 0-5.049 4.093-9.143 9.143-9.143h27.429c5.049 0 9.143 4.093 9.143 9.143-.001 5.049-4.094 9.143-9.143 9.143z"/><path id="Shape_79_" d="m332.197 62.418 55.662-48.704h-73.865l-58.77 45.714h64.776c4.244.028 8.421 1.053 12.197 2.99z"/><path id="Shape_78_" d="m213.083 16.347c-.395.405-.826.772-1.289 1.097l-59.776 41.984h73.417l58.77-45.714h-64.777c-2.382-.009-4.669.94-6.345 2.633z"/><path id="Shape_77_" d="m399.543 202.971c1.741-1.676 2.73-3.984 2.743-6.4v-171.181l-57.353 50.185c1.634 3.537 2.485 7.386 2.496 11.282v168.311z"/><path id="Shape_76_" d="m94.226 235.776c-.395.405-.826.772-1.289 1.097l-59.776 41.984h69.093c-1.083-2.928-1.652-6.021-1.682-9.143v-36.571c-2.383-.009-4.67.939-6.346 2.633z"/><path id="Rectangle-path_9_" d="m155.429 224h36.581v18.286h-36.581z"/><path id="Shape_75_" d="m128 278.857h192c2.393.008 4.693-.928 6.4-2.606l.183-.183c1.65-1.703 2.568-3.983 2.56-6.354v-182.857c0-5.049-4.093-9.143-9.143-9.143h-192c-5.049 0-9.143 4.093-9.143 9.143v182.857c0 5.05 4.094 9.143 9.143 9.143zm146.286-73.143h27.429c5.049 0 9.143 4.093 9.143 9.143 0 5.049-4.093 9.143-9.143 9.143h-27.429c-5.049 0-9.143-4.093-9.143-9.143 0-5.049 4.093-9.143 9.143-9.143zm0 36.572h27.429c5.049 0 9.143 4.093 9.143 9.143s-4.093 9.143-9.143 9.143h-27.429c-5.049 0-9.143-4.093-9.143-9.143s4.093-9.143 9.143-9.143zm-137.143-18.286c0-10.099 8.187-18.286 18.286-18.286h36.571c10.099 0 18.286 8.187 18.286 18.286v18.286c0 10.099-8.187 18.286-18.286 18.286h-36.571c-10.099 0-18.286-8.187-18.286-18.286z"/></g></g></g></svg>